# xmcd
#
# Track frame offsets:
#	150
#	12662
#	24450
#	41752
#	57257
#	70560
#	83950
#	95757
#	108140
#	123802
#	135477
#	147812
#	165482
#	178677
#	191112
#	201450
#	213637
#	227100
#
# Disc length: 3235
#
# Revision: 2
# Processed by: cddbd v1.5.1PL0 Copyright (c) Steve Scherf et al.
# Submitted via: ExactAudioCopy v0.90a11
# Normalized: r0:TDELIM( - ),TSWAP
#
DISCID=010ca112
DTITLE=Various Artist - The Greatest Country Collection Cd 2
DYEAR=1900
DGENRE=
TTITLE0=Nancy Sinatra and Lee Hazlewood - Jackson
TTITLE1=The Everly Brothers - Let It Be Me
TTITLE2=Don McLean - Crying
TTITLE3=Anny Schilder - High Noon (Do Not Forsake Me)
TTITLE4=Hank Locklin - Please Help Me I'm Falling
TTITLE5=Jimmy Dean - Bid Bad John
TTITLE6=Timi Yuro - All Alone Am I
TTITLE7=The Oakridge Boys - The Old Country Church
TTITLE8=Hammon and West - To All The Girls I've Loved Before
TTITLE9=Marie Williams - Don't It Make My Brown Eyes Blue
TTITLE10=Johnny Cash - I Walk The Line
TTITLE11=The Walkers - Oh Lonesome Me
TTITLE12=Ray Charles - Crying Time
TTITLE13=Dolly Parton - Makin' Believe
TTITLE14=Ricky Nelson - Hello Mary Lou
TTITLE15=Nancy Sinatra - These Boots Are MAde For Walkin'
TTITLE16=Sommerset - Almost Persuaded
TTITLE17=Anne Murray - There Goes My Everything
EXTD=
EXTT0=
EXTT1=
EXTT2=
EXTT3=
EXTT4=
EXTT5=
EXTT6=
EXTT7=
EXTT8=
EXTT9=
EXTT10=
EXTT11=
EXTT12=
EXTT13=
EXTT14=
EXTT15=
EXTT16=
EXTT17=
PLAYORDER=
